<?xml version="1.0" encoding="UTF-8" standalone="no"?>
<!DOCTYPE svg PUBLIC "-//W3C//DTD SVG 20010904//EN"
"http://www.w3.org/TR/2001/REC-SVG-20010904/DTD/svg10.dtd">
<!-- Created with Inkscape (http://www.inkscape.org/) -->
<svg
   id="svg1"
   sodipodi:version="0.32"
   inkscape:version="0.37"
   width="400pt"
   height="96pt"
   sodipodi:docname="cmsbanner.svg"
   xmlns="http://www.w3.org/2000/svg"
   xmlns:inkscape="http://www.inkscape.org/namespaces/inkscape"
   xmlns:sodipodi="http://sodipodi.sourceforge.net/DTD/sodipodi-0.dtd"
   xmlns:xml="http://www.w3.org/XML/1998/namespace"
   xmlns:xlink="http://www.w3.org/1999/xlink"
   sodipodi:docbase="/home/wishy/src/cms/images">
  <defs
     id="defs3">
    <linearGradient
       id="linearGradient829">
      <stop
         style="stop-color:#ffffff;stop-opacity:0.74901962;"
         offset="0.0000000"
         id="stop830" />
      <stop
         style="stop-color:#ffffff;stop-opacity:0.10000000;"
         offset="1.0000000"
         id="stop831" />
    </linearGradient>
    <linearGradient
       xlink:href="#linearGradient829"
       id="linearGradient832"
       x1="0.067114092"
       y1="-0.23636363"
       x2="0.96979868"
       y2="0.85454547" />
  </defs>
  <sodipodi:namedview
     id="base"
     pagecolor="#ffffff"
     bordercolor="#666666"
     borderopacity="1.0"
     inkscape:pageopacity="0.0"
     inkscape:pageshadow="2"
     inkscape:zoom="1"
     inkscape:cx="201.024353"
     inkscape:cy="33.7946014"
     inkscape:window-width="724"
     inkscape:window-height="500"
     inkscape:window-x="155"
     inkscape:window-y="112" />
  <rect
     style="font-size:12;fill:#516870;fill-rule:evenodd;stroke-width:7.5;"
     id="rect866"
     width="500.032837"
     height="119.885719"
     ry="10.8788004"
     x="0.30509883"
     y="0.23438635"
     rx="10.6754570" />
  <rect
     style="font-size:12;fill:#88baca;fill-rule:evenodd;stroke-width:7.5;"
     id="rect827"
     width="491.562653"
     height="112.869934"
     ry="8.47969055"
     x="4.60376596"
     y="3.99348283"
     rx="7.97421312" />
  <rect
     style="font-size:12;fill:#788a90;fill-rule:evenodd;stroke:#516870;stroke-width:2.09649;"
     id="rect826"
     width="62.93446078"
     height="65.79031908"
     ry="3.95965531"
     x="421.38565833"
     y="11.82779823"
     rx="3.36690834" />
  <rect
     style="font-size:12;fill:#67aacb;fill-rule:evenodd;stroke:#c5dee3;stroke-width:2.09649;"
     id="rect825"
     width="65.67440037"
     height="68.65460078"
     ry="4.13204384"
     x="392.22917041"
     y="25.77446179"
     rx="3.51349131" />
  <rect
     style="font-size:12;fill:#c5dee3;fill-rule:evenodd;stroke:#61a0bf;stroke-width:2.09649;"
     id="rect828"
     width="54.66720330"
     height="57.14791118"
     ry="3.43950275"
     x="422.78778623"
     y="51.88115552"
     rx="2.92462105" />
  <path
     style="font-size:64;fill:#516870;stroke-width:2.69756;font-family:Orange Fizz;"
     d="M 406.64772 69.539848 C 406.64772 70.30802 406.27858 70.6921 405.54029 70.6921 C 405.10279 70.6921 404.35083 70.63912 403.28442 70.53317 C 402.218 70.40073 401.39768 70.3345 400.82346 70.3345 C 396.8039 70.3345 392.7023 71.07618 388.51868 72.55954 C 387.99915 73.22175 387.42492 73.55286 386.79601 73.55286 C 385.07334 73.55286 384.21201 71.77813 384.21201 68.228667 C 384.21201 67.72539 384.22568 67.089666 384.25302 66.321495 C 384.30771 65.553331 384.33505 65.076538 384.33505 64.891116 C 384.33505 61.076772 384.21201 57.593539 383.96591 54.441403 C 383.91122 53.487817 383.69247 51.381981 383.30965 48.123896 C 383.11825 46.428636 383.02254 45.501534 383.02254 45.342603 C 383.02254 44.547948 383.62411 44.137379 384.82724 44.110888 C 390.67885 41.753414 395.62811 40.574673 399.67501 40.574673 C 401.47972 40.574673 402.73754 40.760095 403.44848 41.130932 C 404.51489 41.634216 405.0481 42.680509 405.0481 44.269819 C 405.0481 45.594248 404.66529 46.256457 403.89966 46.256457 C 403.81762 46.256457 403.57153 46.216724 403.16137 46.137258 C 401.95824 45.872378 400.68674 45.739931 399.34689 45.739931 C 395.60077 45.739931 391.78628 46.667033 387.90344 48.521223 C 388.01282 51.329007 388.10852 54.997662 388.19055 59.527195 C 390.37807 59.235824 393.11246 58.719298 396.39374 57.977618 C 401.56175 56.812126 404.29615 56.202893 404.59693 56.149911 C 405.22584 56.255868 405.7317 56.70617 406.11452 57.500825 C 406.44264 58.136549 406.60671 58.812006 406.60671 59.527195 C 406.60671 60.851624 406.19655 61.513833 405.37623 61.513833 C 405.18483 61.513833 404.97975 61.460858 404.76099 61.354902 L 403.81762 61.354902 C 399.08712 61.275436 393.90544 62.334978 388.27258 64.533522 L 388.23157 65.685771 C 388.23157 66.559892 388.25891 67.275081 388.3136 67.83134 C 392.03238 67.010201 395.69647 66.599625 399.30587 66.599625 C 401.46605 66.599625 403.22973 66.718823 404.59693 66.957219 C 405.96413 67.169132 406.64772 68.030004 406.64772 69.539848 z M 381.21784 69.539848 C 381.21784 70.28153 380.93073 70.65237 380.35651 70.65237 C 379.94635 70.65237 379.33111 70.59939 378.51079 70.49343 C 377.69047 70.38748 377.06156 70.3345 376.62406 70.3345 C 373.50685 70.3345 370.40331 70.91725 367.31344 72.08274 C 366.90328 72.26817 366.49312 72.46683 366.08296 72.67874 C 365.50874 72.91713 365.11225 73.03633 364.8935 73.03633 C 364.29194 73.03633 363.78607 72.59927 363.37591 71.72515 C 363.04778 70.98348 362.88372 70.28153 362.88372 69.619314 C 362.88372 59.182849 362.55559 50.812481 361.89934 44.508216 C 361.6259 41.832879 361.48918 40.574673 361.48918 40.733604 C 361.48918 39.806509 362.00871 39.342958 363.04778 39.342958 C 363.84076 39.342958 364.52436 39.55487 365.09858 39.978682 C 365.70015 40.37601 366.00093 40.932268 366.00093 41.647458 C 366.00093 41.806389 366.00093 42.031543 366.00093 42.322914 C 365.97359 42.614292 365.95991 42.826198 365.95991 42.958638 C 365.95991 43.461922 366.00093 44.124137 366.08296 44.945276 C 366.13765 45.978327 366.17867 46.6273 366.20601 46.892181 C 366.28804 51.50118 366.49312 58.401436 366.82125 67.592943 C 369.61033 66.930735 372.42676 66.599625 375.27053 66.599625 C 376.88383 66.599625 377.95024 66.626115 378.46977 66.67909 C 379.86432 66.891002 380.71198 67.367795 381.01276 68.109469 C 381.14949 68.480312 381.21784 68.957105 381.21784 69.539848 z M 342.53981 63.540203 C 342.67654 64.891116 342.85427 66.904245 343.07302 69.579581 C 342.38943 71.6192 341.58278 72.639 340.65308 72.639 C 339.50463 72.639 338.93041 70.83779 338.93041 67.235349 C 338.93041 66.67909 338.94409 66.016882 338.97143 65.248711 C 338.99877 64.454056 339.01244 64.003754 339.01244 63.897798 C 339.01244 59.951013 338.87572 56.2956 338.60228 52.931559 C 338.5476 52.26935 338.35619 50.746257 338.02806 48.362292 C 337.75462 46.402146 337.6179 44.905543 337.6179 43.872492 C 337.6179 42.83944 338.27416 42.428871 339.58667 42.640776 C 343.22341 41.395819 346.3543 40.773337 348.97932 40.773337 C 351.63168 40.773337 353.96959 41.475285 355.99304 42.879173 C 358.23525 44.415508 359.35635 46.415388 359.35635 48.878818 C 359.35635 51.50118 358.15322 54.189765 355.74694 56.944566 C 353.01255 60.070212 348.61017 62.268755 342.53981 63.540203 z M 349.63557 45.342603 C 347.53009 45.342603 344.76835 45.739931 341.35035 46.534586 C 341.56911 49.5013 341.88356 53.951368 342.29372 59.88479 C 345.13749 59.460978 347.8172 58.255747 350.33284 56.26911 C 353.69615 53.646748 355.3778 51.276032 355.3778 49.156947 C 355.3778 47.832525 354.73522 46.825964 353.45005 46.137258 C 352.41098 45.607491 351.13949 45.342603 349.63557 45.342603 z M 334.29561 70.25504 C 333.83076 70.97023 333.25654 71.32782 332.57294 71.32782 C 332.21747 71.32782 331.88935 71.24836 331.58856 71.08943 C 330.63152 70.58615 330.09831 69.460383 329.98894 67.712142 C 329.57878 61.699254 329.31901 58.242505 329.20963 57.341894 C 328.47135 51.911756 327.25454 49.19668 325.55921 49.19668 C 324.41077 49.19668 323.42639 50.613817 322.60607 53.448084 C 322.03184 55.487703 321.55333 58.29548 321.17051 61.871427 C 320.95176 63.964021 320.74668 66.043366 320.55527 68.109469 C 320.33652 69.672295 319.81698 70.4537 318.99666 70.4537 C 317.68415 70.4537 316.53571 69.606072 315.55133 67.910805 L 315.51031 67.11615 C 314.82672 55.275791 313.30913 49.355611 310.95754 49.355611 C 309.23487 49.355611 307.84033 52.67992 306.77392 59.328531 C 306.11766 63.328297 305.7075 67.473745 305.54344 71.76488 C 305.05125 72.48007 304.47702 72.83767 303.82077 72.83767 C 303.00045 72.83767 302.34419 72.41385 301.852 71.56622 C 301.46919 70.85103 301.27778 70.06962 301.27778 69.221986 C 301.27778 68.851149 301.52388 67.208864 302.01607 64.295125 C 302.86373 59.156358 303.83444 54.746023 304.9282 51.064119 C 306.95166 44.256577 309.07081 40.852803 311.28567 40.852803 C 313.82866 40.852803 316.05719 45.183672 317.97127 53.845412 C 320.40488 46.110774 322.90686 42.243449 325.47718 42.243449 C 329.38737 42.243449 332.32684 51.580645 334.29561 70.25504 z M 296.64298 70.73183 C 296.15079 71.44702 295.56289 71.80461 294.87929 71.80461 C 293.15662 71.80461 292.29529 70.04313 292.29529 66.520159 C 292.29529 66.016882 292.30897 65.3944 292.33631 64.65272 C 292.36365 63.911046 292.37732 63.434253 292.37732 63.222341 C 292.37732 57.474341 292.07654 52.057438 291.47497 46.971646 C 291.20154 44.561197 291.06481 43.435431 291.06481 43.594362 C 291.06481 42.746733 291.69373 42.322914 292.95154 42.322914 C 293.6078 42.322914 294.20937 42.521578 294.75625 42.918906 C 295.30313 43.289749 295.57656 43.766542 295.57656 44.349285 C 295.57656 44.481731 295.56289 44.693637 295.53555 44.985009 C 295.53555 45.249896 295.53555 45.44856 295.53555 45.581 C 295.53555 46.137258 295.57656 46.865696 295.6586 47.766301 C 295.74063 48.905309 295.78164 49.620498 295.78164 49.91187 C 295.83634 51.050877 295.94571 54.520869 296.10977 60.32185 C 296.1918 64.560012 296.36954 68.030004 296.64298 70.73183 z M 270.51583 74.46671 C 269.64082 74.46671 269.20332 74.21507 269.20332 73.71179 C 269.20332 73.36744 269.39473 72.94362 269.77754 72.44034 C 278.06276 69.394166 282.20537 66.533408 282.20537 63.858065 C 282.20537 62.533642 281.13895 61.06353 279.00613 59.44773 C 277.01002 58.017351 275.01391 56.57373 273.0178 55.11686 C 270.88497 53.342135 269.81856 51.633626 269.81856 49.991335 C 269.81856 48.137144 271.10373 46.150507 273.67405 44.031423 C 275.47876 42.574559 277.63893 41.223646 280.15457 39.978682 C 281.24833 39.422424 282.1917 39.144294 282.98467 39.144294 C 283.61359 39.144294 284.16046 39.289983 284.62531 39.581355 C 285.19953 39.899217 285.48664 40.336277 285.48664 40.892535 C 285.48664 41.236888 285.39094 41.581241 285.19953 41.925587 C 284.9261 42.349405 284.28351 42.746733 283.27178 43.117569 C 281.71318 43.673828 280.2366 44.508216 278.84206 45.620733 C 277.11939 46.971646 276.25806 48.282827 276.25806 49.554275 C 276.25806 50.799239 277.16041 52.229618 278.96511 53.845412 C 280.68778 55.249307 282.39678 56.653195 284.0921 58.057083 C 285.92415 59.805324 286.84017 61.447616 286.84017 62.983944 C 286.84017 66.162564 282.8753 69.632562 274.94555 73.39392 C 273.44163 74.10911 271.96506 74.46671 270.51583 74.46671 z M 249.80278 69.539848 C 249.80278 70.30802 249.43363 70.6921 248.69535 70.6921 C 248.25785 70.6921 247.50589 70.63912 246.43947 70.53317 C 245.37306 70.40073 244.55274 70.3345 243.97852 70.3345 C 239.95895 70.3345 235.85736 71.07618 231.67373 72.55954 C 231.1542 73.22175 230.57998 73.55286 229.95106 73.55286 C 228.2284 73.55286 227.36706 71.77813 227.36706 68.228667 C 227.36706 67.72539 227.38074 67.089666 227.40808 66.321495 C 227.46277 65.553331 227.49011 65.076538 227.49011 64.891116 C 227.49011 61.076772 227.36706 57.593539 227.12096 54.441403 C 227.06628 53.487817 226.84753 51.381981 226.46471 48.123896 C 226.27331 46.428636 226.1776 45.501534 226.1776 45.342603 C 226.1776 44.547948 226.77917 44.137379 227.9823 44.110888 C 233.83391 41.753414 238.78317 40.574673 242.83007 40.574673 C 244.63477 40.574673 245.89259 40.760095 246.60354 41.130932 C 247.66995 41.634216 248.20316 42.680509 248.20316 44.269819 C 248.20316 45.594248 247.82034 46.256457 247.05471 46.256457 C 246.97268 46.256457 246.72658 46.216724 246.31642 46.137258 C 245.11329 45.872378 243.8418 45.739931 242.50194 45.739931 C 238.75582 45.739931 234.94134 46.667033 231.05849 48.521223 C 231.16787 51.329007 231.26357 54.997662 231.34561 59.527195 C 233.53313 59.235824 236.26752 58.719298 239.54879 57.977618 C 244.7168 56.812126 247.4512 56.202893 247.75198 56.149911 C 248.3809 56.255868 248.88676 56.70617 249.26957 57.500825 C 249.5977 58.136549 249.76176 58.812006 249.76176 59.527195 C 249.76176 60.851624 249.3516 61.513833 248.53128 61.513833 C 248.33988 61.513833 248.1348 61.460858 247.91605 61.354902 L 246.97268 61.354902 C 242.24218 61.275436 237.0605 62.334978 231.42764 64.533522 L 231.38662 65.685771 C 231.38662 66.559892 231.41397 67.275081 231.46865 67.83134 C 235.18743 67.010201 238.85152 66.599625 242.46093 66.599625 C 244.6211 66.599625 246.38479 66.718823 247.75198 66.957219 C 249.11918 67.169132 249.80278 68.030004 249.80278 69.539848 z M 223.75766 47.964965 C 223.75766 51.434963 221.62483 55.580411 217.35917 60.401316 C 213.6404 64.639478 208.45871 68.612753 201.81413 72.32114 C 201.18522 72.66549 200.74772 72.83767 200.50162 72.83767 C 198.88833 72.83767 198.05434 71.65893 197.99965 69.301452 C 198.027 66.175813 197.95863 61.4741 197.79457 55.196325 C 197.63051 52.653429 197.39809 50.24298 197.0973 47.964965 C 196.82386 45.660465 196.68714 44.574439 196.68714 44.706879 C 196.68714 43.88574 197.20668 43.475164 198.24574 43.475164 C 198.51919 43.475164 198.76528 43.501655 198.98403 43.55463 C 205.08174 41.726923 210.00365 40.81307 213.74977 40.81307 C 216.37479 40.81307 218.617 41.356086 220.47638 42.442113 C 222.6639 43.740051 223.75766 45.581 223.75766 47.964965 z M 214.0779 45.461802 C 211.23413 45.461802 207.17355 46.203482 201.89616 47.686836 C 202.00554 49.329127 202.06023 50.984654 202.06023 52.653429 C 202.06023 53.765946 202.00554 55.44797 201.89616 57.699489 C 201.78679 59.924523 201.7321 61.593298 201.7321 62.705815 C 201.7321 64.268641 201.78679 65.751995 201.89616 67.155883 C 204.95869 66.149322 208.25363 64.122952 211.781 61.076772 C 217.05839 56.547239 219.69708 52.746143 219.69708 49.673473 C 219.69708 48.21661 219.10919 47.117335 217.93339 46.375655 C 216.94901 45.766422 215.66385 45.461802 214.0779 45.461802 z M 192.54453 67.513478 C 192.54453 68.149202 192.42148 68.745193 192.17539 69.301452 C 191.84726 70.01664 191.38241 70.37424 190.78084 70.37424 C 190.0699 70.37424 189.56404 69.765003 189.26325 68.546529 C 189.26325 68.520045 189.15388 67.606192 188.93513 65.80497 C 188.71638 63.791848 188.44294 61.712496 188.11481 59.566928 C 184.39603 59.88479 179.99365 61.103263 174.90768 63.222341 C 174.38815 64.626236 173.92329 65.950659 173.51313 67.195616 C 173.10298 68.414089 172.70649 69.606072 172.32367 70.77156 C 171.61273 72.49332 170.86077 73.35419 170.0678 73.35419 C 169.68498 73.35419 169.3842 73.04958 169.16545 72.44034 C 169.02873 72.01653 168.96037 71.56622 168.96037 71.08943 C 168.96037 70.37424 169.52092 68.241916 170.64202 64.692453 C 171.48968 62.017116 172.24164 59.77884 172.8979 57.977618 C 174.64791 53.209688 175.98777 49.858895 176.91746 47.925232 C 179.32373 42.918906 181.51124 40.415742 183.48001 40.415742 C 186.18706 40.415742 188.5113 45.051232 190.45272 54.322205 L 190.57576 54.282472 C 191.20468 54.388428 191.69687 54.838731 192.05234 55.633386 C 192.32578 56.26911 192.4625 56.944566 192.4625 57.659756 C 192.4625 58.851738 192.1207 59.513953 191.4371 59.646393 C 192.17539 64.414323 192.54453 67.036685 192.54453 67.513478 z M 187.33551 55.037394 C 186.21441 49.739697 184.87455 47.090844 183.31594 47.090844 C 181.70265 47.090844 179.59717 50.534352 176.99949 57.421359 C 179.32373 57.024032 182.76907 56.229377 187.33551 55.037394 z M 164.44861 70.25504 C 163.98377 70.97023 163.40954 71.32782 162.72594 71.32782 C 162.37048 71.32782 162.04235 71.24836 161.74156 71.08943 C 160.78452 70.58615 160.25132 69.460383 160.14194 67.712142 C 159.73178 61.699254 159.47201 58.242505 159.36264 57.341894 C 158.62435 51.911756 157.40755 49.19668 155.71222 49.19668 C 154.56377 49.19668 153.57939 50.613817 152.75907 53.448084 C 152.18485 55.487703 151.70633 58.29548 151.32351 61.871427 C 151.10476 63.964021 150.89968 66.043366 150.70827 68.109469 C 150.48952 69.672295 149.96999 70.4537 149.14967 70.4537 C 147.83716 70.4537 146.68871 69.606072 145.70433 67.910805 L 145.66331 67.11615 C 144.97972 55.275791 143.46213 49.355611 141.11054 49.355611 C 139.38787 49.355611 137.99333 52.67992 136.92692 59.328531 C 136.27066 63.328297 135.8605 67.473745 135.69644 71.76488 C 135.20425 72.48007 134.63003 72.83767 133.97377 72.83767 C 133.15345 72.83767 132.4972 72.41385 132.00501 71.56622 C 131.62219 70.85103 131.43078 70.06962 131.43078 69.221986 C 131.43078 68.851149 131.67688 67.208864 132.16907 64.295125 C 133.01673 59.156358 133.98745 54.746023 135.0812 51.064119 C 137.10466 44.256577 139.22381 40.852803 141.43867 40.852803 C 143.98166 40.852803 146.2102 45.183672 148.12427 53.845412 C 150.55789 46.110774 153.05986 42.243449 155.63019 42.243449 C 159.54038 42.243449 162.47985 51.580645 164.44861 70.25504 z M 95.828949 74.46671 C 94.953944 74.46671 94.516439 74.21507 94.516439 73.71179 C 94.516439 73.36744 94.707849 72.94362 95.090662 72.44034 C 103.37588 69.394166 107.51849 66.533408 107.51849 63.858065 C 107.51849 62.533642 106.45208 61.06353 104.31925 59.44773 C 102.32314 58.017351 100.32703 56.57373 98.33092 55.11686 C 96.198092 53.342135 95.131678 51.633626 95.131678 49.991335 C 95.131678 48.137144 96.41685 46.150507 98.98718 44.031423 C 100.79188 42.574559 102.95205 41.223646 105.46769 39.978682 C 106.56145 39.422424 107.50482 39.144294 108.29779 39.144294 C 108.92671 39.144294 109.47359 39.289983 109.93843 39.581355 C 110.51265 39.899217 110.79977 40.336277 110.79977 40.892535 C 110.79977 41.236888 110.70406 41.581241 110.51265 41.925587 C 110.23922 42.349405 109.59663 42.746733 108.58491 43.117569 C 107.0263 43.673828 105.54973 44.508216 104.15518 45.620733 C 102.43251 46.971646 101.57118 48.282827 101.57118 49.554275 C 101.57118 50.799239 102.47353 52.229618 104.27823 53.845412 C 106.0009 55.249307 107.7099 56.653195 109.40522 58.057083 C 111.23727 59.805324 112.15329 61.447616 112.15329 62.983944 C 112.15329 66.162564 108.18842 69.632562 100.25867 73.39392 C 98.75476 74.10911 97.27818 74.46671 95.828949 74.46671 z M 90.127734 70.25504 C 89.662888 70.97023 89.088665 71.32782 88.405064 71.32782 C 88.049597 71.32782 87.72147 71.24836 87.420682 71.08943 C 86.463645 70.58615 85.930438 69.460383 85.82106 67.712142 C 85.410901 61.699254 85.151135 58.242505 85.041757 57.341894 C 84.30347 51.911756 83.086669 49.19668 81.391339 49.19668 C 80.242893 49.19668 79.25851 50.613817 78.438191 53.448084 C 77.863968 55.487703 77.385453 58.29548 77.002634 61.871427 C 76.783884 63.964021 76.578804 66.043366 76.387395 68.109469 C 76.168645 69.672295 75.649108 70.4537 74.828789 70.4537 C 73.516279 70.4537 72.367833 69.606072 71.38345 67.910805 L 71.342434 67.11615 C 70.65884 55.275791 69.14125 49.355611 66.789665 49.355611 C 65.066996 49.355611 63.672454 52.67992 62.60604 59.328531 C 61.949785 63.328297 61.539625 67.473745 61.375561 71.76488 C 60.88337 72.48007 60.309147 72.83767 59.652892 72.83767 C 58.832576 72.83767 58.176321 72.41385 57.68413 71.56622 C 57.301314 70.85103 57.109907 70.06962 57.109907 69.221986 C 57.109907 68.851149 57.356002 67.208864 57.848193 64.295125 C 58.695856 59.156358 59.666568 54.746023 60.760322 51.064119 C 62.78378 44.256577 64.902932 40.852803 67.117793 40.852803 C 69.660781 40.852803 71.889318 45.183672 73.80339 53.845412 C 76.237007 46.110774 78.738979 42.243449 81.309307 42.243449 C 85.219497 42.243449 88.158969 51.580645 90.127734 70.25504 z M 50.793452 51.103852 C 50.629388 51.103852 50.547357 50.944921 50.547357 50.627059 C 50.547357 50.388663 50.602044 50.031068 50.71142 49.554275 C 50.820796 49.077482 50.875484 48.706645 50.875484 48.441758 C 50.875484 47.859015 50.71142 47.315999 50.383293 46.812715 C 50.027821 46.203482 49.576646 45.898862 49.029767 45.898862 C 48.838359 45.898862 48.578592 45.925353 48.250464 45.978327 C 45.242628 46.402146 42.932064 46.971646 41.318771 47.686836 C 39.131253 48.640422 37.326552 50.123782 35.904667 52.136904 C 33.799182 55.130108 32.74644 58.083574 32.74644 60.997307 C 32.74644 65.103029 34.592157 67.884321 38.283591 69.341184 C 39.076566 69.659046 39.910556 69.817977 40.785563 69.817977 C 42.262137 69.817977 43.957462 69.341184 45.87154 68.387598 C 46.992642 67.857831 48.455544 66.996952 50.260245 65.80497 C 51.68213 64.877874 52.529793 64.414323 52.803233 64.414323 C 53.240736 64.414323 53.459488 64.838142 53.459488 65.685771 C 53.459488 67.010201 52.980969 67.963787 52.02393 68.546529 C 50.055165 69.765003 47.867648 70.77156 45.46138 71.56622 C 42.809016 72.44034 40.443763 72.8774 38.365623 72.8774 C 35.111692 72.8774 32.637064 71.8576 30.941738 69.817977 C 29.410476 67.937296 28.644846 65.3944 28.644846 62.189289 C 28.644846 56.838617 30.504235 51.991221 34.223013 47.647103 C 38.133199 43.064595 42.795344 40.773337 48.209448 40.773337 C 50.396965 40.773337 52.311042 41.077957 53.951679 41.68719 C 54.85403 42.031543 55.305205 42.601044 55.305205 43.395699 C 55.305205 44.42875 54.881373 45.753179 54.033711 47.368974 C 53.213392 48.958284 52.379401 50.070801 51.531739 50.706525 C 51.148923 50.971412 50.902828 51.103852 50.793452 51.103852 z "
     id="path590" />
  <path
     style="fill:url(#linearGradient832);fill-opacity:0.75000000;fill-rule:evenodd;stroke-width:1.0237614pt;"
     d="M 16.628282 6.8664152 C 9.2816075 6.8664152 7.5955037 10.445823 7.4072588 16.48912 L 7.5923859 41.539604 C 254.75682 -1.8135145 355.33257 79.91671 492.19313 46.672677 L 491.86687 15.171406 C 491.96099 9.4104759 489.23955 7.4311498 483.02233 7.5252723 L 16.628282 6.8664152 z "
     id="path857"
     sodipodi:nodetypes="ccccccc" />
  <text
     xml:space="preserve"
     style="fill:#3f5157;fill-opacity:1;stroke:none;font-family:Courier;font-style:normal;font-weight:bold;font-size:12;stroke-opacity:1;stroke-width:1pt;stroke-linejoin:miter;stroke-linecap:butt;text-anchor:start;writing-mode:lr;"
     x="120.174488"
     y="71.5067978"
     id="text588"
     transform="matrix(1.360547,0.000000,-0.652788,1.511729,0.000000,0.000000)"
     sodipodi:linespacing="100%"
     sodipodi:fill-cmyk="(0.276786 0.0714286 0 0.657143)"><tspan
       x="120.174484"
       y="71.5067978"
       sodipodi:role="line"
       id="tspan595"
       style="fill:#3f5157;fill-opacity:1;">Content Management. Done.</tspan></text>
</svg>
